<?xml version="1.0" encoding="UTF-8" standalone="no"?>
<!DOCTYPE svg PUBLIC "-//W3C//DTD SVG 1.1//EN"
 "http://www.w3.org/Graphics/SVG/1.1/DTD/svg11.dtd">
<!-- Generated by graphviz version 2.43.0 (0)
 -->
<!-- Title: benchmarks.test Pages: 1 -->
<svg width="100%" height="100%" xmlns="http://www.w3.org/2000/svg" xmlns:xlink="http://www.w3.org/1999/xlink">
<script type="text/ecmascript"><![CDATA[/** 
 *  SVGPan library 1.2.2
 * ======================
 *
 * Given an unique existing element with id "viewport" (or when missing, the 
 * first g-element), including the library into any SVG adds the following 
 * capabilities:
 *
 *  - Mouse panning
 *  - Mouse zooming (using the wheel)
 *  - Object dragging
 *
 * You can configure the behaviour of the pan/zoom/drag with the variables
 * listed in the CONFIGURATION section of this file.
 *
 * This code is licensed under the following BSD license:
 *
 * Copyright 2009-2019 Andrea Leofreddi <a.leofreddi@vleo.net>. All rights reserved.
 * 
 * Redistribution and use in source and binary forms, with or without modification, are
 * permitted provided that the following conditions are met:
 * 
 *    1. Redistributions of source code must retain the above copyright
 *       notice, this list of conditions and the following disclaimer.
 *    2. Redistributions in binary form must reproduce the above copyright
 *       notice, this list of conditions and the following disclaimer in the
 *       documentation and/or other materials provided with the distribution.
 *    3. Neither the name of the copyright holder nor the names of its 
 *       contributors may be used to endorse or promote products derived from 
 *       this software without specific prior written permission.
 * 
 * THIS SOFTWARE IS PROVIDED BY COPYRIGHT HOLDERS AND CONTRIBUTORS ``AS IS'' AND ANY EXPRESS 
 * OR IMPLIED WARRANTIES, INCLUDING, BUT NOT LIMITED TO, THE IMPLIED WARRANTIES OF MERCHANTABILITY 
 * AND FITNESS FOR A PARTICULAR PURPOSE ARE DISCLAIMED. IN NO EVENT SHALL COPYRIGHT HOLDERS OR
 * CONTRIBUTORS BE LIABLE FOR ANY DIRECT, INDIRECT, INCIDENTAL, SPECIAL, EXEMPLARY, OR
 * CONSEQUENTIAL DAMAGES (INCLUDING, BUT NOT LIMITED TO, PROCUREMENT OF SUBSTITUTE GOODS OR
 * SERVICES; LOSS OF USE, DATA, OR PROFITS; OR BUSINESS INTERRUPTION) HOWEVER CAUSED AND ON
 * ANY THEORY OF LIABILITY, WHETHER IN CONTRACT, STRICT LIABILITY, OR TORT (INCLUDING
 * NEGLIGENCE OR OTHERWISE) ARISING IN ANY WAY OUT OF THE USE OF THIS SOFTWARE, EVEN IF
 * ADVISED OF THE POSSIBILITY OF SUCH DAMAGE.
 * 
 * The views and conclusions contained in the software and documentation are those of the
 * authors and should not be interpreted as representing official policies, either expressed
 * or implied, of Andrea Leofreddi.
 */

"use strict";

/// CONFIGURATION 
/// ====>

var enablePan = 1; // 1 or 0: enable or disable panning (default enabled)
var enableZoom = 1; // 1 or 0: enable or disable zooming (default enabled)
var enableDrag = 0; // 1 or 0: enable or disable dragging (default disabled)
var zoomScale = 0.2; // Zoom sensitivity

/// <====
/// END OF CONFIGURATION 

var root = document.documentElement;
var state = 'none', svgRoot = null, stateTarget, stateOrigin, stateTf;

setupHandlers(root);

/**
 * Register handlers
 */
function setupHandlers(root){
	setAttributes(root, {
		"onmouseup" : "handleMouseUp(evt)",
		"onmousedown" : "handleMouseDown(evt)",
		"onmousemove" : "handleMouseMove(evt)",
		//"onmouseout" : "handleMouseUp(evt)", // Decomment this to stop the pan functionality when dragging out of the SVG element
	});

	if(navigator.userAgent.toLowerCase().indexOf('webkit') >= 0)
		window.addEventListener('mousewheel', handleMouseWheel, false); // Chrome/Safari
	else
		window.addEventListener('DOMMouseScroll', handleMouseWheel, false); // Others
}

/**
 * Retrieves the root element for SVG manipulation. The element is then cached into the svgRoot global variable.
 */
function getRoot(root) {
	if(svgRoot == null) {
		var r = root.getElementById("viewport") ? root.getElementById("viewport") : root.documentElement, t = r;

		while(t != root) {
			if(t.getAttribute("viewBox")) {
				setCTM(r, t.getCTM());

				t.removeAttribute("viewBox");
			}

			t = t.parentNode;
		}

		svgRoot = r;
	}

	return svgRoot;
}

/**
 * Instance an SVGPoint object with given event coordinates.
 */
function getEventPoint(evt) {
	var p = root.createSVGPoint();

	p.x = evt.clientX;
	p.y = evt.clientY;

	return p;
}

/**
 * Sets the current transform matrix of an element.
 */
function setCTM(element, matrix) {
	var s = "matrix(" + matrix.a + "," + matrix.b + "," + matrix.c + "," + matrix.d + "," + matrix.e + "," + matrix.f + ")";

	element.setAttribute("transform", s);
}

/**
 * Dumps a matrix to a string (useful for debug).
 */
function dumpMatrix(matrix) {
	var s = "[ " + matrix.a + ", " + matrix.c + ", " + matrix.e + "\n  " + matrix.b + ", " + matrix.d + ", " + matrix.f + "\n  0, 0, 1 ]";

	return s;
}

/**
 * Sets attributes of an element.
 */
function setAttributes(element, attributes){
	for (var i in attributes)
		element.setAttributeNS(null, i, attributes[i]);
}

/**
 * Handle mouse wheel event.
 */
function handleMouseWheel(evt) {
	if(!enableZoom)
		return;

	if(evt.preventDefault)
		evt.preventDefault();

	evt.returnValue = false;

	var svgDoc = evt.target.ownerDocument;

	var delta;

	if(evt.wheelDelta)
		delta = evt.wheelDelta / 360; // Chrome/Safari
	else
		delta = evt.detail / -9; // Mozilla

	var z = Math.pow(1 + zoomScale, delta);

	var g = getRoot(svgDoc);
	
	var p = getEventPoint(evt);

	p = p.matrixTransform(g.getCTM().inverse());

	// Compute new scale matrix in current mouse position
	var k = root.createSVGMatrix().translate(p.x, p.y).scale(z).translate(-p.x, -p.y);

	setCTM(g, g.getCTM().multiply(k));

	if(typeof(stateTf) == "undefined")
		stateTf = g.getCTM().inverse();

	stateTf = stateTf.multiply(k.inverse());
}

/**
 * Handle mouse move event.
 */
function handleMouseMove(evt) {
	if(evt.preventDefault)
		evt.preventDefault();

	evt.returnValue = false;

	var svgDoc = evt.target.ownerDocument;

	var g = getRoot(svgDoc);

	if(state == 'pan' && enablePan) {
		// Pan mode
		var p = getEventPoint(evt).matrixTransform(stateTf);

		setCTM(g, stateTf.inverse().translate(p.x - stateOrigin.x, p.y - stateOrigin.y));
	} else if(state == 'drag' && enableDrag) {
		// Drag mode
		var p = getEventPoint(evt).matrixTransform(g.getCTM().inverse());

		setCTM(stateTarget, root.createSVGMatrix().translate(p.x - stateOrigin.x, p.y - stateOrigin.y).multiply(g.getCTM().inverse()).multiply(stateTarget.getCTM()));

		stateOrigin = p;
	}
}

/**
 * Handle click event.
 */
function handleMouseDown(evt) {
	if(evt.preventDefault)
		evt.preventDefault();

	evt.returnValue = false;

	var svgDoc = evt.target.ownerDocument;

	var g = getRoot(svgDoc);

	if(
		evt.target.tagName == "svg" 
		|| !enableDrag // Pan anyway when drag is disabled and the user clicked on an element 
	) {
		// Pan mode
		state = 'pan';

		stateTf = g.getCTM().inverse();

		stateOrigin = getEventPoint(evt).matrixTransform(stateTf);
	} else {
		// Drag mode
		state = 'drag';

		stateTarget = evt.target;

		stateTf = g.getCTM().inverse();

		stateOrigin = getEventPoint(evt).matrixTransform(stateTf);
	}
}

/**
 * Handle mouse button release event.
 */
function handleMouseUp(evt) {
	if(evt.preventDefault)
		evt.preventDefault();

	evt.returnValue = false;

	var svgDoc = evt.target.ownerDocument;

	if(state == 'pan' || state == 'drag') {
		// Quit pan mode
		state = '';
	}
}
]]></script><g id="viewport" transform="scale(0.5,0.5) translate(0,0)"><g id="graph0" class="graph" transform="scale(1 1) rotate(0) translate(4 594)">
<title>benchmarks.test</title>
<polygon fill="white" stroke="transparent" points="-4,4 -4,-594 1212,-594 1212,4 -4,4"/>
<g id="clust1" class="cluster">
<title>cluster_L</title>
<polygon fill="none" stroke="black" points="371.5,-413 371.5,-582 991.5,-582 991.5,-413 371.5,-413"/>
</g>
<!-- File: benchmarks.test -->
<g id="node1" class="node">
<title>File: benchmarks.test</title>
<g id="a_node1"><a xlink:title="benchmarks.test">
<polygon fill="#f8f8f8" stroke="black" points="983,-574 380,-574 380,-421 983,-421 983,-574"/>
<text text-anchor="start" x="388" y="-557.2" font-family="Times,serif" font-size="16.00">File: benchmarks.test</text>
<text text-anchor="start" x="388" y="-539.2" font-family="Times,serif" font-size="16.00">Build ID: 0901923c8895ca5bf921b79d8b77853797cdd644</text>
<text text-anchor="start" x="388" y="-521.2" font-family="Times,serif" font-size="16.00">Type: alloc_space</text>
<text text-anchor="start" x="388" y="-503.2" font-family="Times,serif" font-size="16.00">Time: 2026&#45;06&#45;10 04:54:03 UTC</text>
<text text-anchor="start" x="388" y="-485.2" font-family="Times,serif" font-size="16.00">Showing nodes accounting for 14311MB, 99.62% of 14365.80MB total</text>
<text text-anchor="start" x="388" y="-467.2" font-family="Times,serif" font-size="16.00">Dropped 41 nodes (cum &lt;= 71.83MB)</text>
<text text-anchor="start" x="388" y="-430.2" font-family="Times,serif" font-size="16.00">See https://git.io/JfYMW for how to read the graph</text>
</a>
</g>
</g>
<!-- N1 -->
<g id="node1" class="node">
<title>N1</title>
<g id="a_node1"><a xlink:title="branchkv&#45;core/internal/virtual_mem/specarena.NewArena (10212.50MB)">
<polygon fill="#edd7d5" stroke="#b21100" points="1208,-173 921,-173 921,-87 1208,-87 1208,-173"/>
<text text-anchor="middle" x="1064.5" y="-149.8" font-family="Times,serif" font-size="24.00">specarena</text>
<text text-anchor="middle" x="1064.5" y="-123.8" font-family="Times,serif" font-size="24.00">NewArena</text>
<text text-anchor="middle" x="1064.5" y="-97.8" font-family="Times,serif" font-size="24.00">10212.50MB (71.09%)</text>
</a>
</g>
</g>
<!-- NN1_0 -->
<g id="NN1_0" class="node">
<title>NN1_0</title>
<g id="a_NN1_0"><a xlink:title="10212.50MB">
<polygon fill="#f8f8f8" stroke="black" points="1091.5,-36 1041.5,-36 1037.5,-32 1037.5,0 1087.5,0 1091.5,-4 1091.5,-36"/>
<polyline fill="none" stroke="black" points="1087.5,-32 1037.5,-32 "/>
<polyline fill="none" stroke="black" points="1087.5,-32 1087.5,0 "/>
<polyline fill="none" stroke="black" points="1087.5,-32 1091.5,-36 "/>
<text text-anchor="middle" x="1064.5" y="-16.1" font-family="Times,serif" font-size="8.00">8.40MB</text>
</a>
</g>
</g>
<!-- N1&#45;&gt;NN1_0 -->
<g id="edge1" class="edge">
<title>N1&#45;&gt;NN1_0</title>
<g id="a_edge1"><a xlink:title="10212.50MB">
<path fill="none" stroke="black" d="M1064.5,-86.79C1064.5,-73.2 1064.5,-58.5 1064.5,-46.28"/>
<polygon fill="black" stroke="black" points="1068,-46.27 1064.5,-36.27 1061,-46.27 1068,-46.27"/>
</a>
</g>
<g id="a_edge1&#45;label"><a xlink:title="10212.50MB">
<text text-anchor="middle" x="1113" y="-57.8" font-family="Times,serif" font-size="14.00"> 10212.50MB</text>
</a>
</g>
</g>
<!-- N2 -->
<g id="node2" class="node">
<title>N2</title>
<g id="a_node2"><a xlink:title="testing.(*B).runN (14360.56MB)">
<polygon fill="#edd5d5" stroke="#b20000" points="1124,-370 1005,-370 1005,-326 1124,-326 1124,-370"/>
<text text-anchor="middle" x="1064.5" y="-359.6" font-family="Times,serif" font-size="8.00">testing</text>
<text text-anchor="middle" x="1064.5" y="-350.6" font-family="Times,serif" font-size="8.00">(*B)</text>
<text text-anchor="middle" x="1064.5" y="-341.6" font-family="Times,serif" font-size="8.00">runN</text>
<text text-anchor="middle" x="1064.5" y="-332.6" font-family="Times,serif" font-size="8.00">0 of 14360.56MB (100%)</text>
</a>
</g>
</g>
<!-- N5 -->
<g id="node5" class="node">
<title>N5</title>
<g id="a_node5"><a xlink:title="branchkv&#45;core/internal/virtual_mem/benchmarks.BenchmarkArenaDAG (3180.21MB)">
<polygon fill="#edded5" stroke="#b24000" points="672,-275 551,-275 551,-239 672,-239 672,-275"/>
<text text-anchor="middle" x="611.5" y="-264.1" font-family="Times,serif" font-size="8.00">benchmarks</text>
<text text-anchor="middle" x="611.5" y="-255.1" font-family="Times,serif" font-size="8.00">BenchmarkArenaDAG</text>
<text text-anchor="middle" x="611.5" y="-246.1" font-family="Times,serif" font-size="8.00">0 of 3180.21MB (22.14%)</text>
</a>
</g>
</g>
<!-- N2&#45;&gt;N5 -->
<g id="edge13" class="edge">
<title>N2&#45;&gt;N5</title>
<g id="a_edge13"><a xlink:title="testing.(*B).runN &#45;&gt; branchkv&#45;core/internal/virtual_mem/benchmarks.BenchmarkArenaDAG (3180.21MB)">
<path fill="none" stroke="#b24000" stroke-width="2" d="M1004.68,-337.37C959.26,-329.88 895.33,-318.95 839.5,-308 786.63,-297.63 727.19,-284.54 682.25,-274.36"/>
<polygon fill="#b24000" stroke="#b24000" stroke-width="2" points="682.84,-270.91 672.31,-272.1 681.29,-277.73 682.84,-270.91"/>
</a>
</g>
<g id="a_edge13&#45;label"><a xlink:title="testing.(*B).runN &#45;&gt; branchkv&#45;core/internal/virtual_mem/benchmarks.BenchmarkArenaDAG (3180.21MB)">
<text text-anchor="middle" x="883.5" y="-296.8" font-family="Times,serif" font-size="14.00"> 3180.21MB</text>
</a>
</g>
</g>
<!-- N8 -->
<g id="node8" class="node">
<title>N8</title>
<g id="a_node8"><a xlink:title="branchkv&#45;core/internal/virtual_mem/benchmarks.BenchmarkSpecDAG (918.29MB)">
<polygon fill="#ede9e5" stroke="#b29979" points="893.5,-275 783.5,-275 783.5,-239 893.5,-239 893.5,-275"/>
<text text-anchor="middle" x="838.5" y="-264.1" font-family="Times,serif" font-size="8.00">benchmarks</text>
<text text-anchor="middle" x="838.5" y="-255.1" font-family="Times,serif" font-size="8.00">BenchmarkSpecDAG</text>
<text text-anchor="middle" x="838.5" y="-246.1" font-family="Times,serif" font-size="8.00">0 of 918.29MB (6.39%)</text>
</a>
</g>
</g>
<!-- N2&#45;&gt;N8 -->
<g id="edge16" class="edge">
<title>N2&#45;&gt;N8</title>
<g id="a_edge16"><a xlink:title="testing.(*B).runN &#45;&gt; branchkv&#45;core/internal/virtual_mem/benchmarks.BenchmarkSpecDAG (918.29MB)">
<path fill="none" stroke="#b29979" d="M1010.94,-325.91C974.75,-311.66 927.2,-292.93 891.2,-278.75"/>
<polygon fill="#b29979" stroke="#b29979" points="892.42,-275.47 881.84,-275.07 889.86,-281.99 892.42,-275.47"/>
</a>
</g>
<g id="a_edge16&#45;label"><a xlink:title="testing.(*B).runN &#45;&gt; branchkv&#45;core/internal/virtual_mem/benchmarks.BenchmarkSpecDAG (918.29MB)">
<text text-anchor="middle" x="1005" y="-296.8" font-family="Times,serif" font-size="14.00"> 918.29MB</text>
</a>
</g>
</g>
<!-- N10 -->
<g id="node10" class="node">
<title>N10</title>
<g id="a_node10"><a xlink:title="branchkv&#45;core/internal/virtual_mem/benchmarks.BenchmarkFixedDAG (10212.50MB)">
<polygon fill="#edd7d5" stroke="#b21100" points="1127.5,-275 1001.5,-275 1001.5,-239 1127.5,-239 1127.5,-275"/>
<text text-anchor="middle" x="1064.5" y="-264.1" font-family="Times,serif" font-size="8.00">benchmarks</text>
<text text-anchor="middle" x="1064.5" y="-255.1" font-family="Times,serif" font-size="8.00">BenchmarkFixedDAG</text>
<text text-anchor="middle" x="1064.5" y="-246.1" font-family="Times,serif" font-size="8.00">0 of 10212.50MB (71.09%)</text>
</a>
</g>
</g>
<!-- N2&#45;&gt;N10 -->
<g id="edge12" class="edge">
<title>N2&#45;&gt;N10</title>
<g id="a_edge12"><a xlink:title="testing.(*B).runN &#45;&gt; branchkv&#45;core/internal/virtual_mem/benchmarks.BenchmarkFixedDAG (10212.50MB)">
<path fill="none" stroke="#b21100" stroke-width="4" d="M1064.5,-325.91C1064.5,-313.78 1064.5,-298.41 1064.5,-285.36"/>
<polygon fill="#b21100" stroke="#b21100" stroke-width="4" points="1068,-285.07 1064.5,-275.07 1061,-285.07 1068,-285.07"/>
</a>
</g>
<g id="a_edge12&#45;label"><a xlink:title="testing.(*B).runN &#45;&gt; branchkv&#45;core/internal/virtual_mem/benchmarks.BenchmarkFixedDAG (10212.50MB)">
<text text-anchor="middle" x="1113" y="-296.8" font-family="Times,serif" font-size="14.00"> 10212.50MB</text>
</a>
</g>
</g>
<!-- N3 -->
<g id="node3" class="node">
<title>N3</title>
<g id="a_node3"><a xlink:title="testing.(*B).launch (14344.15MB)">
<polygon fill="#edd5d5" stroke="#b20000" points="1127.5,-519.5 1001.5,-519.5 1001.5,-475.5 1127.5,-475.5 1127.5,-519.5"/>
<text text-anchor="middle" x="1064.5" y="-509.1" font-family="Times,serif" font-size="8.00">testing</text>
<text text-anchor="middle" x="1064.5" y="-500.1" font-family="Times,serif" font-size="8.00">(*B)</text>
<text text-anchor="middle" x="1064.5" y="-491.1" font-family="Times,serif" font-size="8.00">launch</text>
<text text-anchor="middle" x="1064.5" y="-482.1" font-family="Times,serif" font-size="8.00">0 of 14344.15MB (99.85%)</text>
</a>
</g>
</g>
<!-- N3&#45;&gt;N2 -->
<g id="edge10" class="edge">
<title>N3&#45;&gt;N2</title>
<g id="a_edge10"><a xlink:title="testing.(*B).launch &#45;&gt; testing.(*B).runN (14344.15MB)">
<path fill="none" stroke="#b20000" stroke-width="5" d="M1064.5,-475.37C1064.5,-450.5 1064.5,-408.99 1064.5,-380.37"/>
<polygon fill="#b20000" stroke="#b20000" stroke-width="5" points="1068.88,-380.09 1064.5,-370.09 1060.13,-380.09 1068.88,-380.09"/>
</a>
</g>
<g id="a_edge10&#45;label"><a xlink:title="testing.(*B).launch &#45;&gt; testing.(*B).runN (14344.15MB)">
<text text-anchor="middle" x="1113" y="-391.8" font-family="Times,serif" font-size="14.00"> 14344.15MB</text>
</a>
</g>
</g>
<!-- N4 -->
<g id="node4" class="node">
<title>N4</title>
<g id="a_node4"><a xlink:title="branchkv&#45;core/internal/virtual_mem/specbranchgraph.Link (1681.02MB)">
<polygon fill="#ede5df" stroke="#b27b4a" points="364.5,-159.5 184.5,-159.5 184.5,-100.5 364.5,-100.5 364.5,-159.5"/>
<text text-anchor="middle" x="274.5" y="-143.5" font-family="Times,serif" font-size="15.00">specbranchgraph</text>
<text text-anchor="middle" x="274.5" y="-126.5" font-family="Times,serif" font-size="15.00">Link</text>
<text text-anchor="middle" x="274.5" y="-109.5" font-family="Times,serif" font-size="15.00">1681.02MB (11.70%)</text>
</a>
</g>
</g>
<!-- NN4_0 -->
<g id="NN4_0" class="node">
<title>NN4_0</title>
<g id="a_NN4_0"><a xlink:title="578.33MB">
<polygon fill="#f8f8f8" stroke="black" points="101,-36 4,-36 0,-32 0,0 97,0 101,-4 101,-36"/>
<polyline fill="none" stroke="black" points="97,-32 0,-32 "/>
<polyline fill="none" stroke="black" points="97,-32 97,0 "/>
<polyline fill="none" stroke="black" points="97,-32 101,-36 "/>
<text text-anchor="middle" x="50.5" y="-16.1" font-family="Times,serif" font-size="8.00">41.38MB..101.06MB</text>
</a>
</g>
</g>
<!-- N4&#45;&gt;NN4_0 -->
<g id="edge2" class="edge">
<title>N4&#45;&gt;NN4_0</title>
<g id="a_edge2"><a xlink:title="578.33MB">
<path fill="none" stroke="black" d="M184.25,-106.46C156.19,-97.24 125.97,-84.92 100.5,-69 89.71,-62.26 79.46,-52.78 71.09,-43.88"/>
<polygon fill="black" stroke="black" points="73.54,-41.38 64.24,-36.3 68.34,-46.07 73.54,-41.38"/>
</a>
</g>
<g id="a_edge2&#45;label"><a xlink:title="578.33MB">
<text text-anchor="middle" x="140" y="-57.8" font-family="Times,serif" font-size="14.00"> 578.33MB</text>
</a>
</g>
</g>
<!-- NN4_1 -->
<g id="NN4_1" class="node">
<title>NN4_1</title>
<g id="a_NN4_1"><a xlink:title="284.26MB">
<polygon fill="#f8f8f8" stroke="black" points="226,-36 123,-36 119,-32 119,0 222,0 226,-4 226,-36"/>
<polyline fill="none" stroke="black" points="222,-32 119,-32 "/>
<polyline fill="none" stroke="black" points="222,-32 222,0 "/>
<polyline fill="none" stroke="black" points="222,-32 226,-36 "/>
<text text-anchor="middle" x="172.5" y="-16.1" font-family="Times,serif" font-size="8.00">126.34MB..157.92MB</text>
</a>
</g>
</g>
<!-- N4&#45;&gt;NN4_1 -->
<g id="edge3" class="edge">
<title>N4&#45;&gt;NN4_1</title>
<g id="a_edge3"><a xlink:title="284.26MB">
<path fill="none" stroke="black" d="M224.75,-100.19C212.65,-91.39 200.59,-80.85 191.5,-69 186.34,-62.26 182.44,-53.96 179.56,-46.07"/>
<polygon fill="black" stroke="black" points="182.85,-44.88 176.44,-36.45 176.19,-47.04 182.85,-44.88"/>
</a>
</g>
<g id="a_edge3&#45;label"><a xlink:title="284.26MB">
<text text-anchor="middle" x="231" y="-57.8" font-family="Times,serif" font-size="14.00"> 284.26MB</text>
</a>
</g>
</g>
<!-- NN4_2 -->
<g id="NN4_2" class="node">
<title>NN4_2</title>
<g id="a_NN4_2"><a xlink:title="246.77MB">
<polygon fill="#f8f8f8" stroke="black" points="304,-36 249,-36 245,-32 245,0 300,0 304,-4 304,-36"/>
<polyline fill="none" stroke="black" points="300,-32 245,-32 "/>
<polyline fill="none" stroke="black" points="300,-32 300,0 "/>
<polyline fill="none" stroke="black" points="300,-32 304,-36 "/>
<text text-anchor="middle" x="274.5" y="-16.1" font-family="Times,serif" font-size="8.00">246.77MB</text>
</a>
</g>
</g>
<!-- N4&#45;&gt;NN4_2 -->
<g id="edge4" class="edge">
<title>N4&#45;&gt;NN4_2</title>
<g id="a_edge4"><a xlink:title="246.77MB">
<path fill="none" stroke="black" d="M274.5,-100.39C274.5,-83.68 274.5,-62.71 274.5,-46.24"/>
<polygon fill="black" stroke="black" points="278,-46.16 274.5,-36.16 271,-46.16 278,-46.16"/>
</a>
</g>
<g id="a_edge4&#45;label"><a xlink:title="246.77MB">
<text text-anchor="middle" x="314" y="-57.8" font-family="Times,serif" font-size="14.00"> 246.77MB</text>
</a>
</g>
</g>
<!-- NN4_3 -->
<g id="NN4_3" class="node">
<title>NN4_3</title>
<g id="a_NN4_3"><a xlink:title="197.41MB">
<polygon fill="#f8f8f8" stroke="black" points="406,-36 351,-36 347,-32 347,0 402,0 406,-4 406,-36"/>
<polyline fill="none" stroke="black" points="402,-32 347,-32 "/>
<polyline fill="none" stroke="black" points="402,-32 402,0 "/>
<polyline fill="none" stroke="black" points="402,-32 406,-36 "/>
<text text-anchor="middle" x="376.5" y="-16.1" font-family="Times,serif" font-size="8.00">197.41MB</text>
</a>
</g>
</g>
<!-- N4&#45;&gt;NN4_3 -->
<g id="edge5" class="edge">
<title>N4&#45;&gt;NN4_3</title>
<g id="a_edge5"><a xlink:title="197.41MB">
<path fill="none" stroke="black" d="M321.2,-100.24C333.14,-91.3 345.22,-80.69 354.5,-69 359.95,-62.13 364.33,-53.71 367.71,-45.75"/>
<polygon fill="black" stroke="black" points="370.98,-46.99 371.33,-36.4 364.45,-44.46 370.98,-46.99"/>
</a>
</g>
<g id="a_edge5&#45;label"><a xlink:title="197.41MB">
<text text-anchor="middle" x="403" y="-57.8" font-family="Times,serif" font-size="14.00"> 197.41MB</text>
</a>
</g>
</g>
<!-- N5&#45;&gt;N4 -->
<g id="edge14" class="edge">
<title>N5&#45;&gt;N4</title>
<g id="a_edge14"><a xlink:title="branchkv&#45;core/internal/virtual_mem/benchmarks.BenchmarkArenaDAG &#45;&gt; branchkv&#45;core/internal/virtual_mem/specbranchgraph.Link (1681.02MB)">
<path fill="none" stroke="#b27b4a" d="M550.7,-243.03C526.4,-237.21 498.35,-229.69 473.5,-221 427.8,-205.01 378.19,-182.58 339.93,-164.12"/>
<polygon fill="#b27b4a" stroke="#b27b4a" points="340.98,-160.74 330.46,-159.51 337.92,-167.03 340.98,-160.74"/>
</a>
</g>
<g id="a_edge14&#45;label"><a xlink:title="branchkv&#45;core/internal/virtual_mem/benchmarks.BenchmarkArenaDAG &#45;&gt; branchkv&#45;core/internal/virtual_mem/specbranchgraph.Link (1681.02MB)">
<text text-anchor="middle" x="517.5" y="-209.8" font-family="Times,serif" font-size="14.00"> 1681.02MB</text>
<text text-anchor="middle" x="517.5" y="-194.8" font-family="Times,serif" font-size="14.00"> (inline)</text>
</a>
</g>
</g>
<!-- N6 -->
<g id="node6" class="node">
<title>N6</title>
<g id="a_node6"><a xlink:title="branchkv&#45;core/internal/virtual_mem/dagnodearena.NewArena (1499.19MB)">
<polygon fill="#ede6e0" stroke="#b28355" points="608.5,-159.5 428.5,-159.5 428.5,-100.5 608.5,-100.5 608.5,-159.5"/>
<text text-anchor="middle" x="518.5" y="-143.5" font-family="Times,serif" font-size="15.00">dagnodearena</text>
<text text-anchor="middle" x="518.5" y="-126.5" font-family="Times,serif" font-size="15.00">NewArena</text>
<text text-anchor="middle" x="518.5" y="-109.5" font-family="Times,serif" font-size="15.00">1499.19MB (10.44%)</text>
</a>
</g>
</g>
<!-- N5&#45;&gt;N6 -->
<g id="edge15" class="edge">
<title>N5&#45;&gt;N6</title>
<g id="a_edge15"><a xlink:title="branchkv&#45;core/internal/virtual_mem/benchmarks.BenchmarkArenaDAG &#45;&gt; branchkv&#45;core/internal/virtual_mem/dagnodearena.NewArena (1499.19MB)">
<path fill="none" stroke="#b28355" d="M598.76,-238.88C585.24,-220.7 563.44,-191.4 545.97,-167.92"/>
<polygon fill="#b28355" stroke="#b28355" points="548.77,-165.82 539.99,-159.88 543.15,-170 548.77,-165.82"/>
</a>
</g>
<g id="a_edge15&#45;label"><a xlink:title="branchkv&#45;core/internal/virtual_mem/benchmarks.BenchmarkArenaDAG &#45;&gt; branchkv&#45;core/internal/virtual_mem/dagnodearena.NewArena (1499.19MB)">
<text text-anchor="middle" x="628.5" y="-209.8" font-family="Times,serif" font-size="14.00"> 1499.19MB</text>
<text text-anchor="middle" x="628.5" y="-194.8" font-family="Times,serif" font-size="14.00"> (inline)</text>
</a>
</g>
</g>
<!-- NN6_0 -->
<g id="NN6_0" class="node">
<title>NN6_0</title>
<g id="a_NN6_0"><a xlink:title="1073.09MB">
<polygon fill="#f8f8f8" stroke="black" points="505.5,-36 455.5,-36 451.5,-32 451.5,0 501.5,0 505.5,-4 505.5,-36"/>
<polyline fill="none" stroke="black" points="501.5,-32 451.5,-32 "/>
<polyline fill="none" stroke="black" points="501.5,-32 501.5,0 "/>
<polyline fill="none" stroke="black" points="501.5,-32 505.5,-36 "/>
<text text-anchor="middle" x="478.5" y="-16.1" font-family="Times,serif" font-size="8.00">1.05GB</text>
</a>
</g>
</g>
<!-- N6&#45;&gt;NN6_0 -->
<g id="edge6" class="edge">
<title>N6&#45;&gt;NN6_0</title>
<g id="a_edge6"><a xlink:title="1073.09MB">
<path fill="none" stroke="black" d="M495.33,-100.43C488.97,-90.98 482.89,-80.04 479.5,-69 477.28,-61.78 476.45,-53.69 476.33,-46.16"/>
<polygon fill="black" stroke="black" points="479.83,-46.11 476.55,-36.03 472.83,-45.95 479.83,-46.11"/>
</a>
</g>
<g id="a_edge6&#45;label"><a xlink:title="1073.09MB">
<text text-anchor="middle" x="523.5" y="-57.8" font-family="Times,serif" font-size="14.00"> 1073.09MB</text>
</a>
</g>
</g>
<!-- NN6_1 -->
<g id="NN6_1" class="node">
<title>NN6_1</title>
<g id="a_NN6_1"><a xlink:title="387.95MB">
<polygon fill="#f8f8f8" stroke="black" points="619,-36 564,-36 560,-32 560,0 615,0 619,-4 619,-36"/>
<polyline fill="none" stroke="black" points="615,-32 560,-32 "/>
<polyline fill="none" stroke="black" points="615,-32 615,0 "/>
<polyline fill="none" stroke="black" points="615,-32 619,-36 "/>
<text text-anchor="middle" x="589.5" y="-16.1" font-family="Times,serif" font-size="8.00">387.95MB</text>
</a>
</g>
</g>
<!-- N6&#45;&gt;NN6_1 -->
<g id="edge7" class="edge">
<title>N6&#45;&gt;NN6_1</title>
<g id="a_edge7"><a xlink:title="387.95MB">
<path fill="none" stroke="black" d="M544.6,-100.28C552.54,-90.73 560.9,-79.78 567.5,-69 571.96,-61.72 576,-53.38 579.37,-45.63"/>
<polygon fill="black" stroke="black" points="582.67,-46.82 583.26,-36.24 576.2,-44.14 582.67,-46.82"/>
</a>
</g>
<g id="a_edge7&#45;label"><a xlink:title="387.95MB">
<text text-anchor="middle" x="615" y="-57.8" font-family="Times,serif" font-size="14.00"> 387.95MB</text>
</a>
</g>
</g>
<!-- N7 -->
<g id="node7" class="node">
<title>N7</title>
<g id="a_node7"><a xlink:title="branchkv&#45;core/internal/virtual_mem/specdag.NewNode (468.52MB)">
<polygon fill="#edebe9" stroke="#b2a895" points="756,-153.5 627,-153.5 627,-106.5 756,-106.5 756,-153.5"/>
<text text-anchor="middle" x="691.5" y="-139.9" font-family="Times,serif" font-size="12.00">specdag</text>
<text text-anchor="middle" x="691.5" y="-126.9" font-family="Times,serif" font-size="12.00">NewNode</text>
<text text-anchor="middle" x="691.5" y="-113.9" font-family="Times,serif" font-size="12.00">468.52MB (3.26%)</text>
</a>
</g>
</g>
<!-- NN7_0 -->
<g id="NN7_0" class="node">
<title>NN7_0</title>
<g id="a_NN7_0"><a xlink:title="468.52MB">
<polygon fill="#f8f8f8" stroke="black" points="718.5,-36 668.5,-36 664.5,-32 664.5,0 714.5,0 718.5,-4 718.5,-36"/>
<polyline fill="none" stroke="black" points="714.5,-32 664.5,-32 "/>
<polyline fill="none" stroke="black" points="714.5,-32 714.5,0 "/>
<polyline fill="none" stroke="black" points="714.5,-32 718.5,-36 "/>
<text text-anchor="middle" x="691.5" y="-16.1" font-family="Times,serif" font-size="8.00">48B</text>
</a>
</g>
</g>
<!-- N7&#45;&gt;NN7_0 -->
<g id="edge8" class="edge">
<title>N7&#45;&gt;NN7_0</title>
<g id="a_edge8"><a xlink:title="468.52MB">
<path fill="none" stroke="black" d="M691.5,-106.47C691.5,-89.03 691.5,-64.8 691.5,-46.26"/>
<polygon fill="black" stroke="black" points="695,-46.1 691.5,-36.1 688,-46.1 695,-46.1"/>
</a>
</g>
<g id="a_edge8&#45;label"><a xlink:title="468.52MB">
<text text-anchor="middle" x="731" y="-57.8" font-family="Times,serif" font-size="14.00"> 468.52MB</text>
</a>
</g>
</g>
<!-- N8&#45;&gt;N7 -->
<g id="edge17" class="edge">
<title>N8&#45;&gt;N7</title>
<g id="a_edge17"><a xlink:title="branchkv&#45;core/internal/virtual_mem/benchmarks.BenchmarkSpecDAG &#45;&gt; branchkv&#45;core/internal/virtual_mem/specdag.NewNode (468.52MB)">
<path fill="none" stroke="#b2a895" d="M785.55,-238.86C774.98,-234.06 764.41,-228.14 755.5,-221 735.7,-205.13 719.27,-181.61 708.02,-162.6"/>
<polygon fill="#b2a895" stroke="#b2a895" points="710.92,-160.62 702.91,-153.68 704.84,-164.1 710.92,-160.62"/>
</a>
</g>
<g id="a_edge17&#45;label"><a xlink:title="branchkv&#45;core/internal/virtual_mem/benchmarks.BenchmarkSpecDAG &#45;&gt; branchkv&#45;core/internal/virtual_mem/specdag.NewNode (468.52MB)">
<text text-anchor="middle" x="795" y="-209.8" font-family="Times,serif" font-size="14.00"> 468.52MB</text>
<text text-anchor="middle" x="795" y="-194.8" font-family="Times,serif" font-size="14.00"> (inline)</text>
</a>
</g>
</g>
<!-- N9 -->
<g id="node9" class="node">
<title>N9</title>
<g id="a_node9"><a xlink:title="branchkv&#45;core/internal/virtual_mem/specdag.Link (449.77MB)">
<polygon fill="#edebe9" stroke="#b2a896" points="903,-153.5 774,-153.5 774,-106.5 903,-106.5 903,-153.5"/>
<text text-anchor="middle" x="838.5" y="-139.9" font-family="Times,serif" font-size="12.00">specdag</text>
<text text-anchor="middle" x="838.5" y="-126.9" font-family="Times,serif" font-size="12.00">Link</text>
<text text-anchor="middle" x="838.5" y="-113.9" font-family="Times,serif" font-size="12.00">449.77MB (3.13%)</text>
</a>
</g>
</g>
<!-- N8&#45;&gt;N9 -->
<g id="edge18" class="edge">
<title>N8&#45;&gt;N9</title>
<g id="a_edge18"><a xlink:title="branchkv&#45;core/internal/virtual_mem/benchmarks.BenchmarkSpecDAG &#45;&gt; branchkv&#45;core/internal/virtual_mem/specdag.Link (449.77MB)">
<path fill="none" stroke="#b2a896" d="M838.5,-238.88C838.5,-219.66 838.5,-188.02 838.5,-163.96"/>
<polygon fill="#b2a896" stroke="#b2a896" points="842,-163.84 838.5,-153.84 835,-163.84 842,-163.84"/>
</a>
</g>
<g id="a_edge18&#45;label"><a xlink:title="branchkv&#45;core/internal/virtual_mem/benchmarks.BenchmarkSpecDAG &#45;&gt; branchkv&#45;core/internal/virtual_mem/specdag.Link (449.77MB)">
<text text-anchor="middle" x="878" y="-209.8" font-family="Times,serif" font-size="14.00"> 449.77MB</text>
<text text-anchor="middle" x="878" y="-194.8" font-family="Times,serif" font-size="14.00"> (inline)</text>
</a>
</g>
</g>
<!-- NN9_0 -->
<g id="NN9_0" class="node">
<title>NN9_0</title>
<g id="a_NN9_0"><a xlink:title="80.84MB">
<polygon fill="#f8f8f8" stroke="black" points="865.5,-36 815.5,-36 811.5,-32 811.5,0 861.5,0 865.5,-4 865.5,-36"/>
<polyline fill="none" stroke="black" points="861.5,-32 811.5,-32 "/>
<polyline fill="none" stroke="black" points="861.5,-32 861.5,0 "/>
<polyline fill="none" stroke="black" points="861.5,-32 865.5,-36 "/>
<text text-anchor="middle" x="838.5" y="-16.1" font-family="Times,serif" font-size="8.00">80.84MB</text>
</a>
</g>
</g>
<!-- N9&#45;&gt;NN9_0 -->
<g id="edge9" class="edge">
<title>N9&#45;&gt;NN9_0</title>
<g id="a_edge9"><a xlink:title="80.84MB">
<path fill="none" stroke="black" d="M838.5,-106.47C838.5,-89.03 838.5,-64.8 838.5,-46.26"/>
<polygon fill="black" stroke="black" points="842,-46.1 838.5,-36.1 835,-46.1 842,-46.1"/>
</a>
</g>
<g id="a_edge9&#45;label"><a xlink:title="80.84MB">
<text text-anchor="middle" x="873.5" y="-57.8" font-family="Times,serif" font-size="14.00"> 80.84MB</text>
</a>
</g>
</g>
<!-- N10&#45;&gt;N1 -->
<g id="edge11" class="edge">
<title>N10&#45;&gt;N1</title>
<g id="a_edge11"><a xlink:title="branchkv&#45;core/internal/virtual_mem/benchmarks.BenchmarkFixedDAG &#45;&gt; branchkv&#45;core/internal/virtual_mem/specarena.NewArena (10212.50MB)">
<path fill="none" stroke="#b21100" stroke-width="4" d="M1064.5,-238.88C1064.5,-224.53 1064.5,-203.26 1064.5,-183.39"/>
<polygon fill="#b21100" stroke="#b21100" stroke-width="4" points="1068,-183.17 1064.5,-173.17 1061,-183.17 1068,-183.17"/>
</a>
</g>
<g id="a_edge11&#45;label"><a xlink:title="branchkv&#45;core/internal/virtual_mem/benchmarks.BenchmarkFixedDAG &#45;&gt; branchkv&#45;core/internal/virtual_mem/specarena.NewArena (10212.50MB)">
<text text-anchor="middle" x="1113" y="-209.8" font-family="Times,serif" font-size="14.00"> 10212.50MB</text>
<text text-anchor="middle" x="1113" y="-194.8" font-family="Times,serif" font-size="14.00"> (inline)</text>
</a>
</g>
</g>
</g>
</g></svg>
